<mxfile host="app.diagrams.net" modified="2022-01-21T04:06:22.946Z" agent="5.0 (Windows NT 10.0; Win64; x64) AppleWebKit/537.36 (KHTML, like Gecko) Chrome/97.0.4692.71 Safari/537.36 Edg/97.0.1072.62" etag="8OPdZQ0lXEwmOHwtOUmZ" version="16.4.3" type="github">
  <diagram id="yIBYQnXPkHH2AtdTjaNt" name="Page-1">
    <mxGraphModel dx="346" dy="193" grid="1" gridSize="10" guides="1" tooltips="1" connect="1" arrows="1" fold="1" page="1" pageScale="1" pageWidth="850" pageHeight="1100" math="0" shadow="0">
      <root>
        <mxCell id="0" />
        <mxCell id="1" parent="0" />
        <mxCell id="Q5UIczpsavz585WU0Ems-1" value="&lt;font style=&quot;font-size: 20px&quot;&gt;&lt;b&gt;Book&lt;/b&gt;&lt;/font&gt;" style="swimlane;fontStyle=0;align=center;verticalAlign=top;childLayout=stackLayout;horizontal=1;startSize=55;horizontalStack=0;resizeParent=1;resizeParentMax=0;resizeLast=0;collapsible=0;marginBottom=0;html=1;" vertex="1" parent="1">
          <mxGeometry x="220" y="140" width="140" height="423" as="geometry" />
        </mxCell>
        <mxCell id="Q5UIczpsavz585WU0Ems-2" value="attributes" style="text;html=1;strokeColor=none;fillColor=none;align=center;verticalAlign=middle;spacingLeft=4;spacingRight=4;overflow=hidden;rotatable=0;points=[[0,0.5],[1,0.5]];portConstraint=eastwest;" vertex="1" parent="Q5UIczpsavz585WU0Ems-1">
          <mxGeometry y="55" width="140" height="20" as="geometry" />
        </mxCell>
        <mxCell id="Q5UIczpsavz585WU0Ems-3" value="book id: Int" style="text;html=1;strokeColor=none;fillColor=none;align=left;verticalAlign=middle;spacingLeft=4;spacingRight=4;overflow=hidden;rotatable=0;points=[[0,0.5],[1,0.5]];portConstraint=eastwest;" vertex="1" parent="Q5UIczpsavz585WU0Ems-1">
          <mxGeometry y="75" width="140" height="20" as="geometry" />
        </mxCell>
        <mxCell id="Q5UIczpsavz585WU0Ems-9" value="author fname: String" style="text;html=1;strokeColor=none;fillColor=none;align=left;verticalAlign=middle;spacingLeft=4;spacingRight=4;overflow=hidden;rotatable=0;points=[[0,0.5],[1,0.5]];portConstraint=eastwest;" vertex="1" parent="Q5UIczpsavz585WU0Ems-1">
          <mxGeometry y="95" width="140" height="20" as="geometry" />
        </mxCell>
        <mxCell id="Q5UIczpsavz585WU0Ems-10" value="author sname: String" style="text;html=1;strokeColor=none;fillColor=none;align=left;verticalAlign=middle;spacingLeft=4;spacingRight=4;overflow=hidden;rotatable=0;points=[[0,0.5],[1,0.5]];portConstraint=eastwest;" vertex="1" parent="Q5UIczpsavz585WU0Ems-1">
          <mxGeometry y="115" width="140" height="20" as="geometry" />
        </mxCell>
        <mxCell id="Q5UIczpsavz585WU0Ems-11" value="title: String" style="text;html=1;strokeColor=none;fillColor=none;align=left;verticalAlign=middle;spacingLeft=4;spacingRight=4;overflow=hidden;rotatable=0;points=[[0,0.5],[1,0.5]];portConstraint=eastwest;" vertex="1" parent="Q5UIczpsavz585WU0Ems-1">
          <mxGeometry y="135" width="140" height="20" as="geometry" />
        </mxCell>
        <mxCell id="Q5UIczpsavz585WU0Ems-5" value="price: Int" style="text;html=1;strokeColor=none;fillColor=none;align=left;verticalAlign=middle;spacingLeft=4;spacingRight=4;overflow=hidden;rotatable=0;points=[[0,0.5],[1,0.5]];portConstraint=eastwest;" vertex="1" parent="Q5UIczpsavz585WU0Ems-1">
          <mxGeometry y="155" width="140" height="20" as="geometry" />
        </mxCell>
        <mxCell id="Q5UIczpsavz585WU0Ems-15" value="book on sale: Date" style="text;html=1;strokeColor=none;fillColor=none;align=left;verticalAlign=middle;spacingLeft=4;spacingRight=4;overflow=hidden;rotatable=0;points=[[0,0.5],[1,0.5]];portConstraint=eastwest;" vertex="1" parent="Q5UIczpsavz585WU0Ems-1">
          <mxGeometry y="175" width="140" height="20" as="geometry" />
        </mxCell>
        <mxCell id="Q5UIczpsavz585WU0Ems-16" value="public year: Date" style="text;html=1;strokeColor=none;fillColor=none;align=left;verticalAlign=middle;spacingLeft=4;spacingRight=4;overflow=hidden;rotatable=0;points=[[0,0.5],[1,0.5]];portConstraint=eastwest;" vertex="1" parent="Q5UIczpsavz585WU0Ems-1">
          <mxGeometry y="195" width="140" height="20" as="geometry" />
        </mxCell>
        <mxCell id="Q5UIczpsavz585WU0Ems-18" value="description: String" style="text;html=1;strokeColor=none;fillColor=none;align=left;verticalAlign=middle;spacingLeft=4;spacingRight=4;overflow=hidden;rotatable=0;points=[[0,0.5],[1,0.5]];portConstraint=eastwest;" vertex="1" parent="Q5UIczpsavz585WU0Ems-1">
          <mxGeometry y="215" width="140" height="20" as="geometry" />
        </mxCell>
        <mxCell id="Q5UIczpsavz585WU0Ems-6" value="" style="line;strokeWidth=1;fillColor=none;align=left;verticalAlign=middle;spacingTop=-1;spacingLeft=3;spacingRight=3;rotatable=0;labelPosition=right;points=[];portConstraint=eastwest;" vertex="1" parent="Q5UIczpsavz585WU0Ems-1">
          <mxGeometry y="235" width="140" height="8" as="geometry" />
        </mxCell>
        <mxCell id="Q5UIczpsavz585WU0Ems-7" value="operations" style="text;html=1;strokeColor=none;fillColor=none;align=center;verticalAlign=middle;spacingLeft=4;spacingRight=4;overflow=hidden;rotatable=0;points=[[0,0.5],[1,0.5]];portConstraint=eastwest;" vertex="1" parent="Q5UIczpsavz585WU0Ems-1">
          <mxGeometry y="243" width="140" height="20" as="geometry" />
        </mxCell>
        <mxCell id="Q5UIczpsavz585WU0Ems-8" value="getbook id(): Int" style="text;html=1;strokeColor=none;fillColor=none;align=left;verticalAlign=middle;spacingLeft=4;spacingRight=4;overflow=hidden;rotatable=0;points=[[0,0.5],[1,0.5]];portConstraint=eastwest;" vertex="1" parent="Q5UIczpsavz585WU0Ems-1">
          <mxGeometry y="263" width="140" height="20" as="geometry" />
        </mxCell>
        <mxCell id="Q5UIczpsavz585WU0Ems-12" value="getauthor fname(): String" style="text;html=1;strokeColor=none;fillColor=none;align=left;verticalAlign=middle;spacingLeft=4;spacingRight=4;overflow=hidden;rotatable=0;points=[[0,0.5],[1,0.5]];portConstraint=eastwest;" vertex="1" parent="Q5UIczpsavz585WU0Ems-1">
          <mxGeometry y="283" width="140" height="20" as="geometry" />
        </mxCell>
        <mxCell id="Q5UIczpsavz585WU0Ems-13" value="getauthor sname(): String" style="text;html=1;strokeColor=none;fillColor=none;align=left;verticalAlign=middle;spacingLeft=4;spacingRight=4;overflow=hidden;rotatable=0;points=[[0,0.5],[1,0.5]];portConstraint=eastwest;" vertex="1" parent="Q5UIczpsavz585WU0Ems-1">
          <mxGeometry y="303" width="140" height="20" as="geometry" />
        </mxCell>
        <mxCell id="Q5UIczpsavz585WU0Ems-14" value="gettitle():String" style="text;html=1;strokeColor=none;fillColor=none;align=left;verticalAlign=middle;spacingLeft=4;spacingRight=4;overflow=hidden;rotatable=0;points=[[0,0.5],[1,0.5]];portConstraint=eastwest;" vertex="1" parent="Q5UIczpsavz585WU0Ems-1">
          <mxGeometry y="323" width="140" height="20" as="geometry" />
        </mxCell>
        <mxCell id="Q5UIczpsavz585WU0Ems-17" value="getprice(): Int" style="text;html=1;strokeColor=none;fillColor=none;align=left;verticalAlign=middle;spacingLeft=4;spacingRight=4;overflow=hidden;rotatable=0;points=[[0,0.5],[1,0.5]];portConstraint=eastwest;" vertex="1" parent="Q5UIczpsavz585WU0Ems-1">
          <mxGeometry y="343" width="140" height="20" as="geometry" />
        </mxCell>
        <mxCell id="Q5UIczpsavz585WU0Ems-19" value="getbook on sale():Date" style="text;html=1;strokeColor=none;fillColor=none;align=left;verticalAlign=middle;spacingLeft=4;spacingRight=4;overflow=hidden;rotatable=0;points=[[0,0.5],[1,0.5]];portConstraint=eastwest;" vertex="1" parent="Q5UIczpsavz585WU0Ems-1">
          <mxGeometry y="363" width="140" height="20" as="geometry" />
        </mxCell>
        <mxCell id="Q5UIczpsavz585WU0Ems-20" value="getpublic year():Date" style="text;html=1;strokeColor=none;fillColor=none;align=left;verticalAlign=middle;spacingLeft=4;spacingRight=4;overflow=hidden;rotatable=0;points=[[0,0.5],[1,0.5]];portConstraint=eastwest;" vertex="1" parent="Q5UIczpsavz585WU0Ems-1">
          <mxGeometry y="383" width="140" height="20" as="geometry" />
        </mxCell>
        <mxCell id="Q5UIczpsavz585WU0Ems-21" value="getdescription():String" style="text;html=1;strokeColor=none;fillColor=none;align=left;verticalAlign=middle;spacingLeft=4;spacingRight=4;overflow=hidden;rotatable=0;points=[[0,0.5],[1,0.5]];portConstraint=eastwest;" vertex="1" parent="Q5UIczpsavz585WU0Ems-1">
          <mxGeometry y="403" width="140" height="20" as="geometry" />
        </mxCell>
      </root>
    </mxGraphModel>
  </diagram>
</mxfile>
